<svg xmlns="http://www.w3.org/2000/svg" xmlns:xlink="http://www.w3.org/1999/xlink" viewBox="0 0 683.18 64.73"><defs><clipPath id="clip-path" transform="translate(-0.61)"><rect width="683.79" height="64.72" style="fill:none"/></clipPath></defs><title>Asset 1</title><g id="Layer_2" data-name="Layer 2"><g id="Layer_1-2" data-name="Layer 1"><g style="clip-path:url(#clip-path)"><path d="M185.91,58a6.67,6.67,0,1,1,6.71,6.71A6.7,6.7,0,0,1,185.91,58" transform="translate(-0.61)" style="fill:#df063c"/><path d="M160.11,26.4c-6.62-2.51-10.68-4.28-10.68-8.8,0-6,4.3-8.65,10.13-8.65a17.91,17.91,0,0,1,9.15,2.46,5.35,5.35,0,0,0,2.32.87c1.88,0,4-4.19,4-5.79C175,1.93,164.08,0,159.74,0c-11.94,0-20.57,6.69-20.57,17.25,0,11.86,8.81,15.23,16.58,18.21C162.11,37.9,167.6,40,167.6,46.21c0,5.64-4.14,9.43-10.31,9.43a25.1,25.1,0,0,1-12.82-3.56,5.14,5.14,0,0,0-2.23-.9c-1.92,0-4.21,4.21-4.21,5.87,0,2.5,4.15,4.43,5.94,5.15a36.69,36.69,0,0,0,13.32,2.39c12.88,0,20.57-7.44,20.57-18.39,0-13.07-9.84-16.8-17.75-19.81" transform="translate(-0.61)" style="fill:#434046"/><path d="M123,0a4.83,4.83,0,0,0-1.25.19l-.72.19a6.09,6.09,0,0,0-4.46,6V60.26c0,2.54,1.48,4.27,3.72,4.27a5.24,5.24,0,0,0,1.35-.19l.72-.19a6.09,6.09,0,0,0,4.46-6V4.26c0-2.73-1.6-4.26-3.82-4.26" transform="translate(-0.61)" style="fill:#434046"/><path d="M98.43,0a4.83,4.83,0,0,0-1.25.19l-.72.19a6.09,6.09,0,0,0-4.46,6V27H64V4.26C64,1.54,62.39,0,60.16,0a4.83,4.83,0,0,0-1.25.19L58.2.38a6.09,6.09,0,0,0-4.46,6V60.26c0,2.54,1.48,4.27,3.72,4.27a5.24,5.24,0,0,0,1.35-.19l.72-.19a6.09,6.09,0,0,0,4.46-6v-22H92V60.26c0,2.54,1.48,4.27,3.72,4.27a5.24,5.24,0,0,0,1.35-.19l.72-.19a6.09,6.09,0,0,0,4.46-6V4.26c0-2.73-1.6-4.26-3.82-4.26" transform="translate(-0.61)" style="fill:#434046"/><path d="M42.64.7H6.12A5.26,5.26,0,0,0,.94,4.55l-.17.62C0,8.05,2.08,9.54,4.29,9.54H18.46V60.26c0,2.54,1.47,4.27,3.72,4.27a5.28,5.28,0,0,0,1.35-.19l.72-.19a6.08,6.08,0,0,0,4.46-6V9.54H40.82A5.26,5.26,0,0,0,46,5.69l.16-.62c.7-2.62-1-4.38-3.52-4.38" transform="translate(-0.61)" style="fill:#434046"/><path d="M682,61.19a5,5,0,0,1-3.53,1.38,4.45,4.45,0,0,1-4.39-4.5h9.74V58c-.09-3.8-2.17-6.08-5.58-6.08A6.06,6.06,0,0,0,678.44,64a6.48,6.48,0,0,0,4.5-1.74l.08-.07-1-1.08Zm-3.8-7.87a3.71,3.71,0,0,1,3.94,3.37h-7.94a4.13,4.13,0,0,1,4-3.37" transform="translate(-0.61)" style="fill:#434046"/><path d="M659.64,59.85a3.44,3.44,0,0,1-3.5,2.73A3,3,0,0,1,653,59.29V52.07h-1.53v7.4A4.21,4.21,0,0,0,655.8,64a4.85,4.85,0,0,0,3.84-1.59v1.41h1.53V52.07h-1.53Z" transform="translate(-0.61)" style="fill:#434046"/><path d="M632,48.45l-1.53.48v3.14h-2.16v1.48h2.16v7.12c0,2.15,1,3.15,3.27,3.15h1.54V62.35h-1.52c-1.3,0-1.76-.45-1.76-1.72V53.55h3.29V52.07H632Z" transform="translate(-0.61)" style="fill:#434046"/><path d="M610.68,14.15c0,2.15,1,3.15,3.27,3.15h1.53V15.82H614c-1.3,0-1.76-.45-1.76-1.72V7h3.29V5.55h-3.29V1.92l-1.53.48V5.55h-2.16V7h2.16Z" transform="translate(-0.61)" style="fill:#434046"/><path d="M652.94,37.4c0,2.15,1,3.15,3.27,3.15h1.54V39.07h-1.52c-1.3,0-1.76-.45-1.76-1.72V30.28h3.29V28.8h-3.29V25.18l-1.53.48V28.8h-2.16v1.48h2.16Z" transform="translate(-0.61)" style="fill:#434046"/><path d="M667,48.45l-1.53.48v3.14h-2.16v1.48h2.16v7.12c0,2.15,1,3.15,3.27,3.15h1.54V62.35h-1.52c-1.3,0-1.76-.45-1.76-1.72V53.55h3.29V52.07H667Z" transform="translate(-0.61)" style="fill:#434046"/><path d="M531.45,48.45l-1.53.48v3.14h-2.16v1.48h2.16v7.12c0,2.15,1,3.15,3.27,3.15h1.54V62.35h-1.52c-1.3,0-1.76-.45-1.76-1.72V53.55h3.29V52.07h-3.29Z" transform="translate(-0.61)" style="fill:#434046"/><path d="M645.73,48.45l-1.53.48v3.14H642v1.48h2.16v7.12c0,2.15,1,3.15,3.27,3.15H649V62.35h-1.52c-1.3,0-1.76-.45-1.76-1.72V53.55H649V52.07h-3.29Z" transform="translate(-0.61)" style="fill:#434046"/><path d="M624.19,57.32l-1.13-.39c-1.53-.54-1.85-1.22-1.85-2.07,0-1.05,1-1.53,2-1.53a2.12,2.12,0,0,1,2.09,1.32l0,.1,1.33-.57,0-.1a3.54,3.54,0,0,0-3.38-2.18c-2,0-3.59,1.26-3.59,2.94,0,1.1.47,2.58,2.72,3.38l1.06.37c1.63.57,2.21,1.15,2.21,2.21s-1,1.79-2.48,1.79a2.91,2.91,0,0,1-2.72-1.68l-.05-.09-1.31.8,0,.09a4.28,4.28,0,0,0,4,2.32c2.69,0,4.1-1.63,4.1-3.24s-1-2.73-3-3.45" transform="translate(-0.61)" style="fill:#434046"/><path d="M612.25,51.89a4.7,4.7,0,0,0-3.87,1.62V52.07h-1.52V63.82h1.52V56.07a3.47,3.47,0,0,1,3.52-2.74,3,3,0,0,1,3.15,3.29v7.21h1.52v-7.4a4.2,4.2,0,0,0-4.33-4.54" transform="translate(-0.61)" style="fill:#434046"/><rect x="600.34" y="47.23" width="1.64" height="16.6" style="fill:#434046"/><path d="M588,57.32l-1.13-.39c-1.53-.54-1.84-1.22-1.84-2.07,0-1.05,1-1.53,2-1.53a2.12,2.12,0,0,1,2.1,1.32l0,.1,1.32-.57,0-.1A3.54,3.54,0,0,0,587,51.89c-2,0-3.59,1.26-3.59,2.94,0,1.1.47,2.58,2.72,3.38l1.06.37c1.64.57,2.22,1.15,2.22,2.21s-1,1.79-2.48,1.79a2.91,2.91,0,0,1-2.72-1.68l-.05-.09-1.31.8,0,.09a4.29,4.29,0,0,0,4,2.32c2.69,0,4.1-1.63,4.1-3.24s-1-2.73-3-3.45" transform="translate(-0.61)" style="fill:#434046"/><path d="M581.17,58c-.09-3.81-2.17-6.08-5.58-6.08A6.06,6.06,0,0,0,575.83,64a6.48,6.48,0,0,0,4.51-1.73l.08-.07-1-1.08-.08.07a5,5,0,0,1-3.53,1.38,4.45,4.45,0,0,1-4.39-4.5h9.74Zm-9.62-1.28a4.14,4.14,0,0,1,4-3.37,3.71,3.71,0,0,1,3.94,3.37Z" transform="translate(-0.61)" style="fill:#434046"/><path d="M560,53.51a5.66,5.66,0,0,0-4.14-1.62,6.06,6.06,0,0,0,0,12.12,5.71,5.71,0,0,0,4.14-1.6v1.42h1.53V47.22H560Zm0,6.84a4.61,4.61,0,0,1-4.14,2.23,4.63,4.63,0,0,1,0-9.25A4.69,4.69,0,0,1,560,55.53Z" transform="translate(-0.61)" style="fill:#434046"/><path d="M545.73,59.85a3.45,3.45,0,0,1-3.49,2.73,3,3,0,0,1-3.18-3.28V52.07h-1.52v7.4A4.21,4.21,0,0,0,541.89,64a4.85,4.85,0,0,0,3.84-1.59v1.41h1.52V52.07h-1.52Z" transform="translate(-0.61)" style="fill:#434046"/><path d="M522.14,54.8l-1.73-.74c-1.76-.74-2.48-1.6-2.48-3,0-1.63,1.54-2.48,3.06-2.48a4.25,4.25,0,0,1,3.5,1.67l.07.09,1.21-1.14-.07-.08A6,6,0,0,0,521.06,47c-3,0-4.77,2-4.77,4,0,2.12,1.09,3.53,3.55,4.58l1.73.74c1.86.83,2.94,1.65,2.94,3.41s-1.43,2.71-3.64,2.71A5.09,5.09,0,0,1,517,60.56l-.07-.09-1.24,1.14.06.08A6.92,6.92,0,0,0,520.87,64c3.17,0,5.3-1.8,5.3-4.49,0-1.28-.42-3.17-4-4.72" transform="translate(-0.61)" style="fill:#434046"/><path d="M647.33,33.34v7.22h1.53v-7.4a4.2,4.2,0,0,0-4.33-4.54,4.71,4.71,0,0,0-3.87,1.62V28.8h-1.53V40.55h1.53V32.8a3.47,3.47,0,0,1,3.52-2.75,3,3,0,0,1,3.15,3.29" transform="translate(-0.61)" style="fill:#434046"/><path d="M630.59,28.62a6.06,6.06,0,0,0,.23,12.12,6.49,6.49,0,0,0,4.5-1.73l.08-.07-1-1.08-.08.07a5,5,0,0,1-3.53,1.38,4.45,4.45,0,0,1-4.39-4.5h9.74V34.7c-.09-3.81-2.17-6.08-5.58-6.08m-4,4.8a4.13,4.13,0,0,1,4-3.37,3.71,3.71,0,0,1,3.94,3.37Z" transform="translate(-0.61)" style="fill:#434046"/><path d="M620.49,40.55H622v-7.4c0-2.75-1.65-4.53-4.21-4.53a4.58,4.58,0,0,0-3.92,2,3.85,3.85,0,0,0-3.45-2A4.49,4.49,0,0,0,607,30.1V28.8h-1.53V40.55H607v-8.1a3.19,3.19,0,0,1,3.1-2.4c1.76,0,2.89,1.29,2.89,3.29v7.21h1.53v-7.4a2.88,2.88,0,0,0,0-.41,3.18,3.18,0,0,1,3.13-2.69c1.77,0,2.87,1.26,2.87,3.29Z" transform="translate(-0.61)" style="fill:#434046"/><path d="M602,38.93l-1-1.08-.08.08a5,5,0,0,1-3.53,1.38,4.45,4.45,0,0,1-4.39-4.5h9.74V34.7c-.09-3.81-2.17-6.08-5.58-6.08a6.06,6.06,0,0,0,.23,12.12,6.47,6.47,0,0,0,4.5-1.73Zm-4.86-8.88a3.71,3.71,0,0,1,3.94,3.37h-7.94a4.14,4.14,0,0,1,4-3.37" transform="translate(-0.61)" style="fill:#434046"/><polygon points="579.51 28.86 579.48 28.8 577.76 28.8 583.8 40.87 589.81 28.8 588.09 28.8 583.8 37.62 579.51 28.86" style="fill:#434046"/><path d="M571.53,28.62a6.06,6.06,0,1,0,6.08,6.06,5.94,5.94,0,0,0-6.08-6.06m0,10.69a4.63,4.63,0,0,1,0-9.25A4.42,4.42,0,0,1,576,34.68a4.42,4.42,0,0,1-4.51,4.63" transform="translate(-0.61)" style="fill:#434046"/><path d="M563.4,28.73a4.19,4.19,0,0,0-3.36,1.6V28.8h-1.53V40.55H560v-8a3.38,3.38,0,0,1,3.22-2.31,3.9,3.9,0,0,1,.88.11l.13,0V28.82l-.09,0a4.51,4.51,0,0,0-.78-.07" transform="translate(-0.61)" style="fill:#434046"/><path d="M555.43,34.68a5.88,5.88,0,0,0-6-6.06,5.7,5.7,0,0,0-4.17,1.64V28.8h-1.52v16h1.52V39.12a5.7,5.7,0,0,0,4.17,1.62,5.88,5.88,0,0,0,6-6.06m-6,4.63a4.64,4.64,0,0,1-4.17-2.23V32.3a4.64,4.64,0,0,1,4.17-2.25,4.42,4.42,0,0,1,4.4,4.63,4.42,4.42,0,0,1-4.4,4.63" transform="translate(-0.61)" style="fill:#434046"/><path d="M538.46,33.34v7.22H540v-7.4c0-2.76-1.65-4.54-4.21-4.54a4.59,4.59,0,0,0-3.91,2,3.85,3.85,0,0,0-3.45-2A4.5,4.5,0,0,0,525,30.1V28.8h-1.52V40.55H525v-8.1a3.19,3.19,0,0,1,3.1-2.4c1.76,0,2.89,1.29,2.89,3.29v7.22h1.53v-7.4a2.63,2.63,0,0,0,0-.41,3.18,3.18,0,0,1,3.13-2.69c1.77,0,2.87,1.26,2.87,3.29" transform="translate(-0.61)" style="fill:#434046"/><rect x="516.92" y="23.96" width="1.64" height="16.6" style="fill:#434046"/><path d="M546.33,17.48a6.48,6.48,0,0,0,4.5-1.74l.08-.07-1-1.08-.08.07a5,5,0,0,1-3.53,1.38,4.45,4.45,0,0,1-4.39-4.5h9.74v-.11c-.09-3.8-2.17-6.08-5.58-6.08a5.91,5.91,0,0,0-5.73,6.06,5.88,5.88,0,0,0,6,6.06M546.06,6.8A3.71,3.71,0,0,1,550,10.16h-7.94a4.14,4.14,0,0,1,4-3.37" transform="translate(-0.61)" style="fill:#434046"/><path d="M529.34,9.54a3.47,3.47,0,0,1,3.52-2.75A3,3,0,0,1,536,10.08V17.3h1.53V9.9a4.2,4.2,0,0,0-4.33-4.53A4.7,4.7,0,0,0,529.34,7V.7h-1.53V17.3h1.53Z" transform="translate(-0.61)" style="fill:#434046"/><polygon points="518.52 17.3 520.17 17.3 520.17 2.27 524.83 2.27 524.83 0.7 513.89 0.7 513.89 2.27 518.52 2.27 518.52 17.3" style="fill:#434046"/><path d="M676.35,15.68l-1-1.08-.08.08a5,5,0,0,1-3.53,1.38,4.45,4.45,0,0,1-4.39-4.5h9.74v-.11c-.09-3.81-2.17-6.08-5.58-6.08a5.91,5.91,0,0,0-5.73,6.06,5.88,5.88,0,0,0,6,6.06,6.47,6.47,0,0,0,4.5-1.73ZM671.49,6.8a3.71,3.71,0,0,1,3.94,3.37h-7.94a4.14,4.14,0,0,1,4-3.37" transform="translate(-0.61)" style="fill:#434046"/><path d="M664.49,7.12l.13,0V5.57l-.09,0a4.27,4.27,0,0,0-.78-.07,4.2,4.2,0,0,0-3.35,1.6V5.55h-1.52V17.3h1.52v-8A3.38,3.38,0,0,1,663.62,7a3.87,3.87,0,0,1,.88.11" transform="translate(-0.61)" style="fill:#434046"/><path d="M653.31,17.3h1.53V5.55h-1.53V7a5.66,5.66,0,0,0-4.14-1.62,5.88,5.88,0,0,0-6,6.06,5.88,5.88,0,0,0,6,6.06,5.72,5.72,0,0,0,4.14-1.6Zm-4.14-1.25a4.42,4.42,0,0,1-4.4-4.63,4.42,4.42,0,0,1,4.4-4.63A4.7,4.7,0,0,1,653.31,9v4.82a4.61,4.61,0,0,1-4.14,2.23" transform="translate(-0.61)" style="fill:#434046"/><path d="M641.68,15.68l-1-1.11-.08.08a5,5,0,0,1-3.5,1.4,4.47,4.47,0,0,1-4.39-4.63,4.47,4.47,0,0,1,4.39-4.63,5,5,0,0,1,3.5,1.4l.08.08,1-1.1-.07-.07a6.35,6.35,0,0,0-4.48-1.74,6,6,0,0,0-6,6.06,6,6,0,0,0,6,6.06,6.34,6.34,0,0,0,4.48-1.74Z" transform="translate(-0.61)" style="fill:#434046"/><path d="M620.13,9.54a3.47,3.47,0,0,1,3.52-2.75,3,3,0,0,1,3.15,3.29V17.3h1.52V9.9A4.2,4.2,0,0,0,624,5.36,4.7,4.7,0,0,0,620.13,7V.7H618.6V17.3h1.53Z" transform="translate(-0.61)" style="fill:#434046"/><rect x="604.21" y="0.7" width="1.52" height="16.6" style="fill:#434046"/><path d="M595.12,17.48a5.72,5.72,0,0,0,4.14-1.6V17.3h1.53V5.55h-1.53V7a5.66,5.66,0,0,0-4.14-1.62,5.88,5.88,0,0,0-6,6.06,5.88,5.88,0,0,0,6,6.06m0-10.69A4.69,4.69,0,0,1,599.26,9v4.82a4.61,4.61,0,0,1-4.14,2.23,4.42,4.42,0,0,1-4.4-4.63,4.42,4.42,0,0,1,4.4-4.63" transform="translate(-0.61)" style="fill:#434046"/><path d="M581.77,17.48a6.47,6.47,0,0,0,4.5-1.73l.08-.07-1-1.08-.08.08a5,5,0,0,1-3.53,1.38,4.45,4.45,0,0,1-4.39-4.5h9.74v-.11c-.09-3.81-2.17-6.08-5.58-6.08a5.91,5.91,0,0,0-5.73,6.06,5.88,5.88,0,0,0,6,6.06M581.5,6.8a3.71,3.71,0,0,1,3.94,3.37h-7.95a4.14,4.14,0,0,1,4-3.37" transform="translate(-0.61)" style="fill:#434046"/><polygon points="561.48 9.54 570.48 9.54 570.48 17.3 572.12 17.3 572.12 0.7 570.48 0.7 570.48 7.95 561.48 7.95 561.48 0.7 559.84 0.7 559.84 17.3 561.48 17.3 561.48 9.54" style="fill:#434046"/><rect x="564.66" y="52.07" width="1.53" height="11.75" style="fill:#434046"/><path d="M566,47a1.26,1.26,0,1,0,1.26,1.26A1.26,1.26,0,0,0,566,47" transform="translate(-0.61)" style="fill:#434046"/><rect x="637.51" y="51.57" width="1.54" height="11.82" style="fill:#434046"/><path d="M638.9,46.51a1.27,1.27,0,1,0,1.27,1.27,1.27,1.27,0,0,0-1.27-1.27" transform="translate(-0.61)" style="fill:#434046"/><rect x="209.19" y="0.7" width="3.94" height="63.12" style="fill:#434046"/><path d="M245.64,17.13a19.31,19.31,0,0,0-15.39,7.2v-6.5h-3.94v46h3.94V32.44c2.35-7.12,8.1-11.37,15.39-11.37,8.73,0,14.69,4.95,14.69,15.48V63.82h3.94V35.93c0-13-8.32-18.8-18.62-18.8" transform="translate(-0.61)" style="fill:#434046"/><path d="M414.58,49.21c-2.35,7.12-8.1,11.37-15.39,11.37-8.73,0-14.69-4.95-14.69-15.48V17.83h-3.94V45.72c0,13,8.32,18.8,18.63,18.8a19.31,19.31,0,0,0,15.39-7.2v6.5h3.94v-46h-3.94Z" transform="translate(-0.61)" style="fill:#434046"/><path d="M316.7,4.27l-3.94,2.11V17.83h-7.94v3.94h7.94v29c0,9.45,4.15,13,12.42,13h4.11V60.1h-3.5c-7.14,0-9.09-2.47-9.09-10.7V21.77h12.66V17.83H316.7Z" transform="translate(-0.61)" style="fill:#434046"/><path d="M360.81,4.27l-3.94,2.11V17.83h-7.94v3.94h7.94v29c0,9.45,4.15,13,12.42,13h4.11V60.1h-3.5c-7.14,0-9.09-2.47-9.09-10.7V21.77h12.66V17.83H360.81Z" transform="translate(-0.61)" style="fill:#434046"/><path d="M437.68,4.27l-3.94,2.11V17.83H425.8v3.94h7.94v29c0,9.45,4.15,13,12.42,13h4.11V60.1h-3.5c-7.14,0-9.09-2.47-9.09-10.7V21.77h12.66V17.83H437.68Z" transform="translate(-0.61)" style="fill:#434046"/><rect x="337.11" y="17.83" width="3.94" height="45.99" style="fill:#434046"/><path d="M477.09,60.58c-11.45,0-19.5-8.75-19.75-19.41h40.4V40h0c-.15-12.77-7.63-22.9-21.51-22.9-13.06,0-22.91,10.19-22.91,23.7s10.22,23.7,23.78,23.7a26.41,26.41,0,0,0,18.62-7.85l-2.78-3a22.49,22.49,0,0,1-15.84,6.9m-.87-39.52c10.2,0,16.17,6.57,17.29,16.26H457.57c1.57-10.1,9.46-16.26,18.64-16.26" transform="translate(-0.61)" style="fill:#434046"/><path d="M339.73,3.32a3.56,3.56,0,1,0,3.56,3.56,3.57,3.57,0,0,0-3.56-3.56" transform="translate(-0.61)" style="fill:#434046"/><path d="M290.45,39.06l-4.9-1.75c-6.07-2.2-8.43-4.64-8.43-8.9s3.23-7.54,9.3-7.54a13.23,13.23,0,0,1,9.8,4.15l2.59-3.08c-3.16-3.27-7.45-4.81-12.38-4.81-7.86,0-13.33,4.5-13.33,11.19,0,5.82,3.35,9.8,10.2,12.26l4.63,1.66c6.34,2.29,9.48,4.46,9.48,10,0,4.92-4.22,8.5-10.75,8.5-4.64,0-8.72-2.76-11.2-7.15l-3.33,2.5a16,16,0,0,0,14.53,8.39c8.7,0,14.78-5.07,14.78-12.33,0-6.48-3.22-10.25-11-13.14" transform="translate(-0.61)" style="fill:#434046"/></g></g></g></svg>